<?xml version="1.0" encoding="UTF-8"?>
<svg xmlns="http://www.w3.org/2000/svg" id="Layer_1" width="4.44in" height="4.44in" version="1.2" viewBox="0 0 4.44in 4.44in" baseProfile="tiny-ps">
  <rect width="320" height="320" style="fill: #85b8df;"/>
  <circle cx="160.5" cy="160.5" r="138.5" style="fill: #fff;"/>
  <g>
    <path d="M38.55,174.75c-.62,0-1.14-.22-1.55-.64-.4-.42-.6-.97-.6-1.63v-25.62c0-.29.03-.72.31-1,.28-.28.7-.31,1-.31h9.13c3.24,0,5.73.65,7.39,1.94,1.71,1.32,2.57,3.31,2.57,5.9s-1,4.7-2.99,6.22c.98.53,1.84,1.28,2.55,2.23.96,1.27,1.44,3.07,1.44,5.34s-.88,4.2-2.61,5.57c-1.69,1.33-4.11,2.01-7.19,2.01h-9.45ZM45.4,167.2c1,0,1.73-.17,2.15-.51.39-.31.58-.83.58-1.58s-.17-1.24-.51-1.49c-.27-.2-.85-.44-2.11-.44h-.25v4.02h.13ZM45.27,157.27c2.86-.11,2.86-1.45,2.86-1.96,0-.75-.18-1.29-.54-1.59-.38-.32-1.09-.5-2.08-.5h-.25v4.06Z" style="fill: #438aca;"/>
    <path d="M46.84,146.13c6.25,0,9.37,2.42,9.37,7.25,0,2.78-1.2,4.88-3.6,6.33,1.31.48,2.4,1.31,3.28,2.48.88,1.17,1.32,2.84,1.32,4.98s-.79,3.85-2.38,5.1c-1.59,1.25-3.86,1.88-6.83,1.88h-9.45c-.45,0-.83-.15-1.12-.46-.29-.31-.44-.71-.44-1.22v-25.62c0-.29.05-.49.14-.58.09-.09.29-.14.58-.14h9.13M44.68,157.86h.2c2.56,0,3.84-.85,3.84-2.56,0-.93-.25-1.61-.74-2.04-.49-.43-1.31-.64-2.46-.64h-.84v5.24M44.68,167.79h.72c1.15,0,1.99-.21,2.52-.64.53-.43.8-1.11.8-2.04s-.25-1.59-.74-1.96c-.49-.37-1.31-.56-2.46-.56h-.84v5.2M46.84,144.95h-9.13c-.23,0-.93,0-1.42.49-.49.49-.49,1.19-.49,1.42v25.62c0,.81.27,1.51.77,2.04.51.54,1.2.82,1.97.82h9.45c3.22,0,5.77-.72,7.56-2.14,1.88-1.48,2.83-3.51,2.83-6.03s-.52-4.32-1.56-5.69c-.59-.78-1.26-1.43-2.02-1.95.61-.57,1.12-1.2,1.52-1.9.7-1.23,1.06-2.66,1.06-4.25,0-3.85-1.83-8.43-10.55-8.43h0ZM45.86,156.63v-2.82c.9.04,1.24.25,1.35.35.27.24.33.75.33,1.15s0,1.12-1.68,1.33h0ZM45.86,166.6v-2.82c.94.04,1.29.23,1.41.31.17.13.27.5.27,1.02,0,.55-.12.93-.36,1.12-.15.12-.51.31-1.32.37h0Z" style="fill: #b3b3b3;"/>
  </g>
  <g>
    <path d="M75.3,174.99c-1.24,0-2.19-.46-2.81-1.38l-.03-.05-3.63-8.46h-.26v8.5c0,.82-1.05,1-1.44,1.06-.67.11-1.64.17-2.95.17s-2.3-.05-2.97-.16c-.4-.06-1.46-.23-1.46-1.03v-26.1c0-1.27.76-1.99,2.07-1.99h7.65c3.63,0,6.41.73,8.26,2.18,1.9,1.48,2.86,3.71,2.86,6.62,0,1.74-.34,3.34-1.02,4.76-.6,1.26-1.43,2.31-2.47,3.13l4.91,8.18-.09.26c-.26.77-1.01,1.59-2.3,2.5-1.72,1.23-3.13,1.83-4.3,1.83ZM68.57,158.63c2.49-.12,2.82-1.42,2.82-2.56,0-.79-.19-1.36-.56-1.71-.38-.36-1.06-.54-2.02-.54h-.25v4.81Z" style="fill: #438aca;"/>
    <path d="M69.46,146.13c7.02,0,10.53,2.74,10.53,8.21,0,1.66-.32,3.16-.96,4.5-.64,1.35-1.55,2.42-2.72,3.22l5.04,8.41c-.21.64-.91,1.38-2.08,2.2-1.6,1.15-2.92,1.72-3.96,1.72s-1.82-.37-2.32-1.12l-3.76-8.77h-1.24v9.09c0,.43-1.27.64-3.8.64s-3.84-.2-3.84-.6v-26.1c0-.93.49-1.4,1.48-1.4h7.65M67.98,159.23h.2c2.54,0,3.8-1.05,3.8-3.16,0-.96-.25-1.67-.74-2.14-.49-.47-1.3-.7-2.42-.7h-.84v6.01M69.46,144.95h-7.65c-1.64,0-2.66.99-2.66,2.58v26.1c0,.27.09.94.92,1.33.27.13.6.22,1.04.29.71.11,1.71.16,3.07.16s2.34-.06,3.05-.18c.45-.07.78-.17,1.05-.31.8-.4.89-1.07.89-1.34v-6.23l2.74,6.37.04.1.06.09c.51.75,1.49,1.64,3.3,1.64,1.31,0,2.83-.63,4.65-1.94,1.42-1,2.22-1.88,2.52-2.79l.17-.52-.28-.47-4.51-7.51c.93-.82,1.68-1.83,2.24-3,.71-1.5,1.08-3.19,1.08-5.01,0-3.11-1.04-5.49-3.09-7.09-1-.78-2.25-1.37-3.72-1.75-1.41-.37-3.06-.55-4.9-.55h0ZM69.16,157.97v-3.56c.8.04,1.14.24,1.27.37.25.23.37.66.37,1.28,0,.81-.14,1.66-1.64,1.91h0Z" style="fill: #b3b3b3;"/>
  </g>
  <g>
    <path d="M83.83,174.75c-1.18,0-1.43-1.65-1.5-2.22-.11-.59-.17-1.2-.17-1.82s.06-1.23.17-1.82c.08-.57.32-2.22,1.5-2.22h2.17v-13.07h-2.25c-1.18,0-1.46-1.67-1.54-2.22h0c-.08-.6-.13-1.2-.13-1.82s.04-1.22.13-1.81h0c.09-.56.36-2.23,1.54-2.23h13.45c1.18,0,1.43,1.65,1.5,2.22.11.59.17,1.2.17,1.82s-.06,1.23-.17,1.82c-.08.57-.32,2.22-1.5,2.22h-2.09v13.07h2.21c1.18,0,1.45,1.65,1.54,2.21.11.59.17,1.21.17,1.82s-.06,1.23-.17,1.82c-.09.56-.37,2.21-1.54,2.21h-13.49Z" style="fill: #438aca;"/>
    <path d="M97.2,146.13c.45,0,.76.57.92,1.72.11.56.16,1.13.16,1.72s-.05,1.16-.16,1.72c-.16,1.15-.47,1.72-.92,1.72h-2.68v14.25h2.8c.45,0,.77.57.96,1.72.11.56.16,1.13.16,1.72s-.05,1.16-.16,1.72c-.19,1.15-.51,1.72-.96,1.72h-13.49c-.45,0-.76-.57-.92-1.72-.11-.56-.16-1.13-.16-1.72s.05-1.16.16-1.72c.16-1.15.47-1.72.92-1.72h2.76v-14.25h-2.84c-.45,0-.77-.57-.96-1.72-.08-.56-.12-1.13-.12-1.72s.04-1.16.12-1.72c.19-1.15.51-1.72.96-1.72h13.45M97.2,144.95h-13.45c-.39,0-1.11.13-1.61,1.04-.23.41-.4.96-.51,1.68h0s0,.02,0,.02c-.09.61-.13,1.25-.13,1.89s.04,1.28.13,1.89h0s0,.02,0,.02c.12.72.28,1.27.51,1.68.5.9,1.23,1.04,1.61,1.04h1.66v11.89h-1.58c-.32,0-1.1.1-1.61,1.06-.22.41-.37.95-.47,1.66-.12.62-.18,1.26-.18,1.91s.06,1.29.18,1.91c.1.71.26,1.25.47,1.66.51.95,1.3,1.06,1.61,1.06h13.49c.39,0,1.11-.13,1.61-1.04.23-.41.4-.95.51-1.66.12-.63.18-1.28.18-1.93s-.06-1.3-.18-1.93c-.12-.71-.28-1.25-.51-1.66-.5-.9-1.23-1.04-1.61-1.04h-1.62v-11.89h1.5c.32,0,1.1-.1,1.61-1.05.22-.41.37-.95.47-1.66.12-.62.18-1.27.18-1.91s-.06-1.29-.18-1.91c-.1-.71-.26-1.25-.47-1.66-.51-.95-1.3-1.06-1.61-1.06h0Z" style="fill: #b3b3b3;"/>
  </g>
  <g>
    <path d="M103.17,174.75c-1.7,0-2.63-.86-2.63-2.43v-24.02c0-.81.22-1.47.64-1.97.44-.51,1.05-.79,1.75-.79h6.69c4.38,0,7.77,1.13,10.08,3.37,2.31,2.24,3.48,5.78,3.48,10.51,0,5.03-1.11,8.88-3.28,11.43-2.2,2.58-5.53,3.89-9.88,3.89h-6.85ZM109.44,166.39s.12.01.22.01c1.27,0,2.21-.45,2.86-1.39.69-.99,1.04-2.71,1.04-5.13,0-2.95-.55-4.11-1-4.56-.64-.63-1.7-.96-3.14-.99v11.38c0,.36.02.57.03.68Z" style="fill: #438aca;"/>
    <path d="M109.61,146.13c4.24,0,7.47,1.07,9.67,3.2,2.2,2.14,3.3,5.5,3.3,10.09,0,9.82-4.19,14.73-12.57,14.73h-6.85c-1.36,0-2.04-.61-2.04-1.84v-24.02c0-.67.17-1.19.5-1.58.33-.39.77-.58,1.3-.58h6.69M109.65,166.99c1.47,0,2.58-.55,3.34-1.64.76-1.09,1.14-2.92,1.14-5.47s-.39-4.21-1.18-4.98c-.79-.77-2.04-1.16-3.74-1.16h-.4v11.97c0,.56.04.91.12,1.06.08.15.32.22.72.22M109.61,144.95h-6.69c-.88,0-1.64.34-2.2.99-.52.61-.79,1.4-.79,2.35v24.02c0,1.2.49,1.89.9,2.26.56.51,1.34.76,2.32.76h6.85c4.53,0,8.01-1.38,10.33-4.1,1.15-1.35,2.03-3.05,2.6-5.05.55-1.94.83-4.22.83-6.77,0-2.41-.3-4.54-.88-6.33-.61-1.86-1.54-3.41-2.78-4.6-1.22-1.19-2.75-2.09-4.52-2.68-1.72-.57-3.73-.86-5.97-.86h0ZM110,165.8s0-.06,0-.09v-10.76c.97.09,1.69.35,2.13.79.25.24.83,1.14.83,4.14s-.51,4.18-.93,4.79c-.48.69-1.13,1.05-2.03,1.12h0Z" style="fill: #b3b3b3;"/>
  </g>
  <g>
    <path d="M137.92,175.15c-4.02,0-7.32-1.33-9.8-3.95-2.47-2.61-3.73-6.46-3.73-11.46,0-4.27,1.22-7.79,3.63-10.48,2.43-2.71,5.82-4.08,10.09-4.08,1.91,0,3.66.19,5.2.56,1.64.39,2.75.93,3.4,1.64l.13.14.02.19c.03.24.04.66.04,1.27,0,.66-.21,1.55-.64,2.71-.43,1.17-.92,2.03-1.49,2.62-.66.69-1.11.98-1.53.98-.36,0-.73-.14-1.09-.43-.11-.09-.42-.27-1.31-.54-.69-.21-1.36-.31-1.99-.31-1.5,0-2.68.46-3.6,1.42-.91.95-1.38,2.48-1.38,4.55s.48,3.66,1.43,4.71c.95,1.04,1.99,1.55,3.21,1.55.74,0,1.1-.11,1.28-.2.19-.1.19-.18.19-.25l.08-5.45c0-.49.29-1.11,1.66-1.32.8-.12,1.48-.19,2.01-.19h.02l1.61.12h.02c.5.08,2.02.32,2.02,1.43l-.16,12.84-.25.17c-.6.42-1.73.81-3.43,1.19-1.65.37-3.56.55-5.67.55Z" style="fill: #438aca;"/>
    <path d="M138.12,145.77c1.87,0,3.56.18,5.06.54,1.51.36,2.54.85,3.1,1.46.03.21.04.61.04,1.2s-.2,1.42-.6,2.5c-.4,1.08-.85,1.89-1.36,2.42-.51.53-.87.8-1.1.8s-.47-.1-.72-.3c-.25-.2-.75-.41-1.5-.64-.75-.23-1.47-.34-2.16-.34-1.66,0-3,.53-4.02,1.6-1.03,1.07-1.54,2.72-1.54,4.96s.53,3.94,1.58,5.1c1.05,1.16,2.27,1.74,3.64,1.74s2.06-.35,2.06-1.04l.08-5.45c0-.37.39-.62,1.16-.74.77-.12,1.41-.18,1.92-.18l1.56.12c1.01.16,1.52.44,1.52.84l-.16,12.53c-.53.37-1.61.74-3.22,1.1-1.62.36-3.46.54-5.55.54-3.87,0-6.99-1.25-9.37-3.76-2.38-2.51-3.56-6.19-3.56-11.05,0-4.14,1.16-7.5,3.48-10.09,2.32-2.59,5.54-3.88,9.65-3.88M138.12,144.59c-4.44,0-7.98,1.44-10.53,4.28-2.51,2.8-3.79,6.46-3.79,10.88,0,2.54.32,4.82.95,6.77.65,2,1.63,3.72,2.94,5.09,2.6,2.74,6.04,4.13,10.23,4.13,2.16,0,4.11-.19,5.8-.57,1.81-.4,2.97-.81,3.64-1.29l.5-.35v-.61s.17-12.53.17-12.53h0v-.02c0-.3-.1-1.05-.99-1.55-.38-.21-.88-.36-1.53-.46h-.05s-.05-.01-.05-.01l-1.56-.12h-.05s-.05,0-.05,0c-.57,0-1.26.06-2.1.19-.56.09-.99.23-1.33.45-.53.34-.83.87-.84,1.45l-.08,5.23c-.14.04-.42.09-.88.09-1.04,0-1.94-.44-2.77-1.35-.85-.93-1.27-2.38-1.27-4.31s.41-3.31,1.21-4.14c.8-.83,1.84-1.24,3.17-1.24.57,0,1.19.1,1.82.29.89.27,1.1.43,1.11.44.46.37.95.55,1.45.55.6,0,1.17-.34,1.96-1.17.62-.66,1.15-1.58,1.61-2.83.45-1.22.67-2.18.67-2.91,0-.85-.03-1.17-.05-1.35l-.05-.37-.25-.28c-.73-.8-1.94-1.39-3.7-1.81-1.59-.38-3.39-.57-5.34-.57h0Z" style="fill: #b3b3b3;"/>
  </g>
  <g>
    <path d="M152.17,174.75c-1.91,0-2.11-1.28-2.11-1.83v-25.74c0-1.02.57-1.63,1.51-1.63h14.33c1.26,0,1.43,1.99,1.43,4.13s-.17,4.13-1.43,4.13h-6.82v2.86h4.57c.38,0,.89.2,1.14,1.14.14.52.21,1.26.21,2.26,0,.59-.06,1.29-.19,2.07-.17,1.09-.59,1.64-1.24,1.64h-4.49v2.82h6.78c1.19,0,1.43,1.7,1.51,2.27.08.53.13,1.11.13,1.71s-.08,1.39-.25,2.32c-.08.46-.33,1.85-1.38,1.85h-13.69Z" style="fill: #438aca;"/>
    <path d="M165.91,146.13c.56,0,.84,1.18.84,3.54s-.28,3.54-.84,3.54h-7.41v4.04h5.16c.51,0,.76.93.76,2.8,0,.56-.06,1.22-.18,1.98-.12.76-.34,1.14-.66,1.14h-5.08v4h7.37c.45,0,.76.59.92,1.76.08.51.12,1.05.12,1.62s-.08,1.31-.24,2.22c-.16.91-.43,1.36-.8,1.36h-13.69c-1.01,0-1.52-.41-1.52-1.24v-25.74c0-.69.31-1.04.92-1.04h14.33M165.91,144.95h-14.33c-1.28,0-2.1.87-2.1,2.22v25.74c0,1.17.71,2.42,2.7,2.42h13.69c.61,0,1.15-.34,1.5-.92.21-.35.36-.82.47-1.42.17-.98.26-1.78.26-2.43s-.04-1.23-.13-1.79c-.1-.72-.25-1.28-.47-1.7-.51-.97-1.3-1.07-1.62-1.07h-6.18v-1.64h3.9c.59,0,1.11-.32,1.43-.88.19-.32.32-.73.4-1.26.13-.82.19-1.55.19-2.17,0-1.05-.08-1.84-.23-2.41-.39-1.42-1.33-1.57-1.71-1.57h-3.98v-1.68h6.22c.51,0,1.41-.23,1.78-1.8.16-.69.24-1.65.24-2.93s-.08-2.24-.24-2.93c-.37-1.56-1.27-1.8-1.78-1.8h0Z" style="fill: #b3b3b3;"/>
  </g>
  <g>
    <path d="M195.13,174.87c-3.8,0-5.53-.47-5.78-1.58l-2.17-8.78-2.36,8.75c-.19.78-1.18,1.23-3.3,1.48h-.02c-.92.08-1.85.12-2.77.12h-.01l-2.59-.12h-.02c-2.15-.23-3.14-.67-3.32-1.46v-.02s-4.13-26.63-4.13-26.63c-.04-.19,0-.39.13-.55.26-.33.75-.59,4.5-.59,1.58,0,2.75.06,3.58.2.75.12,1.62.35,1.73,1.06v.02s1.59,13.63,1.59,13.63l3.46-13.92v-.02c.25-.72,1.28-1,3.69-1,2.78,0,3.47.36,3.68.95v.03s3.44,14.17,3.44,14.17l1.9-13.93h0c.14-.79,1.22-.99,2.37-1.1,1.19-.11,2.17-.16,2.9-.16,3.68,0,4.23.31,4.51.65.14.17.2.4.15.61l-4.85,26.56v.02c-.19.69-1.02,1.08-2.78,1.31-1.44.19-2.62.29-3.52.29Z"/>
    <path d="M201.62,146.01c2.8,0,4.16.19,4.08.56l-4.84,26.54c-.11.4-.87.69-2.28.88-1.42.19-2.56.28-3.44.28-3.31,0-5.04-.37-5.2-1.12l-2.72-11.01-2.96,10.97c-.11.48-1.04.83-2.8,1.04-.91.08-1.82.12-2.72.12l-2.56-.12c-1.76-.19-2.7-.52-2.8-1l-4.12-26.62c-.08-.29,1.27-.44,4.04-.44,3.07,0,4.64.25,4.72.76l1.96,16.86,4.24-17.06c.13-.4,1.17-.6,3.12-.6s2.99.19,3.12.56l4.16,17.18,2.32-17.02c.05-.29.67-.49,1.84-.6,1.17-.11,2.12-.16,2.84-.16M201.62,144.83c-.76,0-1.72.05-2.95.16-.68.06-1.21.15-1.6.28-.93.3-1.22.87-1.3,1.28v.03s0,.03,0,.03l-1.48,10.82-2.69-11.09v-.06s-.04-.06-.04-.06c-.4-1.12-1.86-1.34-4.24-1.34s-3.85.24-4.24,1.41v.04s-.03.04-.03.04l-2.67,10.75-1.21-10.4v-.02s0-.02,0-.02c-.19-1.23-1.67-1.46-2.22-1.55-.86-.14-2.06-.21-3.67-.21-1.3,0-2.27.03-2.99.09-.97.09-1.6.23-1.98.73-.22.29-.31.66-.24,1.01l4.12,26.59v.04s.01.04.01.04c.15.66.66,1.16,1.54,1.47.56.2,1.31.35,2.3.45h.03s.03,0,.03,0l2.56.12h.03s.03,0,.03,0c.94,0,1.89-.04,2.83-.12h.02s.02,0,.02,0c.98-.12,1.73-.28,2.29-.49.85-.32,1.36-.8,1.52-1.44l1.77-6.54,1.62,6.56c.29,1.29,1.82,1.62,2.32,1.73.96.21,2.28.31,4.03.31.94,0,2.11-.09,3.6-.29,1.44-.19,2.95-.55,3.27-1.75v-.05s.02-.05.02-.05l4.84-26.54c.07-.39-.03-.78-.28-1.09-.48-.59-1.34-.87-4.97-.87h0Z" style="fill: #b3b3b3;"/>
  </g>
  <g>
    <path d="M219.65,175.15c-3.9,0-7.13-1.3-9.59-3.86-2.46-2.56-3.71-6.31-3.71-11.16s1.26-8.59,3.75-11.12c2.49-2.53,5.75-3.82,9.67-3.82s7.15,1.27,9.57,3.76c2.42,2.49,3.65,6.28,3.65,11.26s-1.26,8.76-3.74,11.23c-2.48,2.47-5.71,3.72-9.61,3.72ZM219.67,154.05c-1.09,0-1.99.5-2.75,1.52-.79,1.07-1.19,2.61-1.19,4.59s.38,3.51,1.13,4.54c.72.98,1.63,1.46,2.79,1.46s2.08-.48,2.81-1.48c.76-1.04,1.15-2.58,1.15-4.58s-.4-3.53-1.18-4.57c-.76-1-1.66-1.49-2.75-1.49Z"/>
    <path d="M219.77,145.77c3.78,0,6.83,1.19,9.15,3.58,2.32,2.39,3.48,6.01,3.48,10.85s-1.19,8.45-3.56,10.81c-2.38,2.36-5.44,3.54-9.19,3.54s-6.81-1.23-9.17-3.68c-2.36-2.46-3.54-6.04-3.54-10.75s1.19-8.28,3.58-10.71c2.39-2.43,5.47-3.64,9.25-3.64M219.65,166.75c1.35,0,2.44-.57,3.28-1.72.84-1.15,1.26-2.79,1.26-4.92s-.43-3.78-1.3-4.92c-.87-1.15-1.94-1.72-3.22-1.72s-2.36.59-3.22,1.76c-.87,1.17-1.3,2.82-1.3,4.94s.41,3.75,1.24,4.88c.83,1.13,1.91,1.7,3.26,1.7M219.77,144.59c-4.09,0-7.48,1.34-10.09,4-1.32,1.34-2.31,3-2.97,4.95-.63,1.9-.96,4.11-.96,6.59s.32,4.69.95,6.59c.64,1.95,1.63,3.63,2.93,4.98,2.58,2.68,5.95,4.05,10.02,4.05s7.43-1.31,10.02-3.89c1.32-1.31,2.31-2.97,2.96-4.94.63-1.91.95-4.17.95-6.71s-.31-4.79-.93-6.71c-.63-1.97-1.61-3.65-2.89-4.97-2.54-2.62-5.91-3.94-10-3.94h0ZM219.65,165.57c-.97,0-1.7-.39-2.31-1.22-.67-.92-1.01-2.33-1.01-4.19s.36-3.28,1.07-4.24c.65-.87,1.37-1.28,2.27-1.28s1.63.4,2.28,1.25c.7.93,1.06,2.35,1.06,4.21s-.35,3.29-1.03,4.23c-.62.84-1.36,1.24-2.33,1.24h0Z" style="fill: #b3b3b3;"/>
  </g>
  <g>
    <path d="M250.58,174.99c-1.24,0-2.19-.46-2.81-1.38l-.03-.05-3.63-8.46h-.26v8.5c0,.82-1.05,1-1.44,1.06-.67.11-1.64.17-2.95.17s-2.3-.05-2.97-.16c-.4-.06-1.46-.23-1.46-1.03v-26.1c0-1.27.76-1.99,2.07-1.99h7.65c3.63,0,6.41.73,8.26,2.18,1.9,1.48,2.86,3.71,2.86,6.62,0,1.74-.34,3.34-1.02,4.76-.6,1.26-1.43,2.31-2.47,3.13l4.91,8.18-.09.26c-.26.77-1.01,1.59-2.3,2.5-1.72,1.23-3.13,1.83-4.3,1.83ZM243.85,158.63c2.49-.12,2.82-1.42,2.82-2.56,0-.79-.19-1.36-.56-1.71-.38-.36-1.06-.54-2.02-.54h-.25v4.81Z"/>
    <path d="M244.74,146.13c7.02,0,10.53,2.74,10.53,8.21,0,1.66-.32,3.16-.96,4.5-.64,1.35-1.55,2.42-2.72,3.22l5.04,8.41c-.21.64-.91,1.38-2.08,2.2-1.6,1.15-2.92,1.72-3.96,1.72s-1.82-.37-2.32-1.12l-3.76-8.77h-1.24v9.09c0,.43-1.27.64-3.8.64s-3.84-.2-3.84-.6v-26.1c0-.93.49-1.4,1.48-1.4h7.65M243.26,159.23h.2c2.54,0,3.8-1.05,3.8-3.16,0-.96-.25-1.67-.74-2.14-.49-.47-1.3-.7-2.42-.7h-.84v6.01M244.74,144.95h-7.65c-1.64,0-2.66.99-2.66,2.58v26.1c0,.27.09.94.92,1.33.27.13.6.22,1.04.29.71.11,1.71.16,3.07.16s2.34-.06,3.05-.18c.45-.07.78-.17,1.05-.31.8-.4.89-1.07.89-1.34v-6.23l2.74,6.37.04.1.06.09c.51.75,1.49,1.64,3.3,1.64,1.31,0,2.83-.63,4.65-1.94,1.42-1,2.22-1.88,2.52-2.79l.17-.52-.28-.47-4.51-7.51c.93-.82,1.68-1.83,2.24-3,.71-1.5,1.08-3.19,1.08-5.01,0-3.11-1.04-5.49-3.09-7.09-1-.78-2.25-1.37-3.72-1.75-1.41-.37-3.06-.55-4.9-.55h0ZM244.44,157.97v-3.56c.8.04,1.14.24,1.27.37.25.23.37.66.37,1.28,0,.81-.14,1.66-1.64,1.91h0Z" style="fill: #b3b3b3;"/>
  </g>
  <g>
    <path d="M275.38,174.99l-1.03-.09h-.05c-1.02-.27-1.82-.92-2.38-1.94l-4.09-7.83v8.47c0,.8-1.05.97-1.44,1.03-.66.11-1.62.16-2.92.16h-.02l-2.27-.12c-1.34-.11-2.55-.28-2.55-1.15v-26.86c0-.84,1.08-1.02,1.49-1.09.71-.12,1.72-.18,3.1-.18s2.39.06,3.1.18c.41.07,1.49.25,1.49,1.09v7.64l3.76-7.9c.27-.53,1-.89,3.73-.89,4.78,0,5.93.54,6.17,1.34l.03.08v.09c0,.14-.03.29-.1.42h0s-6.79,12.27-6.79,12.27l7.98,11.02v.19c0,.33-.19.51-.97,1.14-1.27,1.11-2.79,1.99-4.5,2.62-.57.21-1.15.32-1.73.32h-.02Z"/>
    <path d="M263.23,145.97c2.67,0,4,.23,4,.68v10.25l4.88-10.25c.19-.37,1.25-.56,3.2-.56,3.55,0,5.42.31,5.61.92,0,.05-.01.11-.04.16l-6.97,12.57,8.09,11.17c0,.05-.25.28-.76.68-1.23,1.07-2.67,1.91-4.32,2.52-.51.19-1.01.28-1.52.28l-.96-.08c-.85-.21-1.52-.76-2-1.64l-4.56-8.73h-.64v9.65c0,.4-1.25.6-3.76.6l-2.24-.12c-1.33-.11-2-.29-2-.56v-26.86c0-.45,1.33-.68,4-.68M263.23,144.79c-1.41,0-2.46.06-3.2.19-.46.08-.81.18-1.09.33-.81.41-.9,1.08-.9,1.35v26.86c0,.41.18,1.15,1.36,1.48.41.12.98.2,1.73.26h.02s.02,0,.02,0l2.24.12h.03s.03,0,.03,0c1.33,0,2.31-.05,3.01-.16.44-.07.76-.16,1.03-.29.82-.39.91-1.06.91-1.33v-6.06l2.98,5.69h0s0,.02,0,.02c.64,1.18,1.57,1.93,2.75,2.22l.09.02h.1s.96.09.96.09h.05s.05,0,.05,0c.64,0,1.29-.12,1.93-.35,1.77-.66,3.34-1.57,4.67-2.72.77-.61,1.19-.95,1.19-1.59v-.38l-.22-.31-7.65-10.56,6.6-11.91v-.02s.03-.03.03-.03c.11-.22.16-.45.16-.68v-.18l-.05-.17c-.31-1.03-1.49-1.35-2.48-1.51-1.01-.17-2.4-.25-4.26-.25-1.05,0-1.86.05-2.47.16-.6.1-1.43.33-1.79,1.06h0s0,.02,0,.02l-2.64,5.53v-5.02c0-.27-.09-.94-.9-1.35-.28-.14-.63-.25-1.09-.32-.74-.13-1.79-.19-3.2-.19h0Z" style="fill: #b3b3b3;"/>
  </g>
<title>Title</title></svg>
